<svg width="642" height="459" xmlns="http://www.w3.org/2000/svg" xmlns:xlink="http://www.w3.org/1999/xlink" xml:space="preserve" overflow="hidden"><defs><clipPath id="clip0"><rect x="205" y="87" width="15" height="15"/></clipPath><clipPath id="clip1"><path d="M226.599 150.43 212.865 148.139 215.154 134.396 228.888 136.687Z" fill-rule="evenodd" clip-rule="evenodd"/></clipPath><clipPath id="clip2"><rect x="412" y="180" width="14" height="15"/></clipPath><clipPath id="clip3"><path d="M433.123 244.861 419.39 242.571 421.678 228.828 435.412 231.118Z" fill-rule="evenodd" clip-rule="evenodd"/></clipPath><clipPath id="clip4"><rect x="216" y="271" width="14" height="15"/></clipPath><clipPath id="clip5"><rect x="566" y="309" width="15" height="15"/></clipPath><clipPath id="clip6"><rect x="216" y="342" width="14" height="15"/></clipPath><clipPath id="clip7"><rect x="61" y="376" width="15" height="15"/></clipPath></defs><g><path d="M629.628 392.164C630.909 392.164 631.948 393.203 631.948 394.484L631.948 440.121C631.948 441.402 630.909 442.441 629.628 442.441L518.244 442.441C516.962 442.441 515.924 441.402 515.924 440.121L515.924 394.484C515.924 393.203 516.962 392.164 518.244 392.164Z" stroke="#666666" stroke-width="0.773499" fill="#FFF4DD" transform="matrix(1 0 0 1.00069 5.02582 7.7403)"/><text fill="#333333" font-family="Cambria,Cambria_MSFontService,sans-serif" font-weight="400" font-size="16" transform="matrix(0.773499 0 0 0.77403 545.227 425)">env</text><text fill="#333333" font-family="Cambria,Cambria_MSFontService,sans-serif" font-weight="400" font-size="16" transform="matrix(0.773499 0 0 0.77403 564.166 425)">_</text><text fill="#333333" font-family="Cambria,Cambria_MSFontService,sans-serif" font-weight="400" font-size="16" transform="matrix(0.773499 0 0 0.77403 568.752 425)">setup</text><text fill="#333333" font-family="Cambria,Cambria_MSFontService,sans-serif" font-weight="400" font-size="16" transform="matrix(0.773499 0 0 0.77403 598.012 425)">.</text><text fill="#333333" font-family="Cambria,Cambria_MSFontService,sans-serif" font-weight="400" font-size="16" transform="matrix(0.773499 0 0 0.77403 600.55 425)">sh</text><path d="M474.928 392.164C476.21 392.164 477.249 393.203 477.249 394.484L477.249 440.121C477.249 441.402 476.21 442.441 474.928 442.441L363.544 442.441C362.263 442.441 361.224 441.402 361.224 440.121L361.224 394.484C361.224 393.203 362.263 392.164 363.544 392.164Z" stroke="#666666" stroke-width="0.773499" fill="#FFF4DD" transform="matrix(1 0 0 1.00069 5.02582 7.7403)"/><text fill="#333333" font-family="Cambria,Cambria_MSFontService,sans-serif" font-weight="400" font-size="16" transform="matrix(0.773499 0 0 0.77403 381.457 425)">gmtsar</text><text fill="#333333" font-family="Cambria,Cambria_MSFontService,sans-serif" font-weight="400" font-size="16" transform="matrix(0.773499 0 0 0.77403 418.536 425)">_</text><text fill="#333333" font-family="Cambria,Cambria_MSFontService,sans-serif" font-weight="400" font-size="16" transform="matrix(0.773499 0 0 0.77403 423.123 425)">setup</text><text fill="#333333" font-family="Cambria,Cambria_MSFontService,sans-serif" font-weight="400" font-size="16" transform="matrix(0.773499 0 0 0.77403 452.383 425)">.</text><text fill="#333333" font-family="Cambria,Cambria_MSFontService,sans-serif" font-weight="400" font-size="16" transform="matrix(0.773499 0 0 0.77403 454.921 425)">sh</text><path d="M268.404 392.164C269.686 392.164 270.725 393.203 270.725 394.484L270.725 440.121C270.725 441.402 269.686 442.441 268.404 442.441L157.02 442.441C155.739 442.441 154.7 441.402 154.7 440.121L154.7 394.484C154.7 393.203 155.739 392.164 157.02 392.164Z" stroke="#666666" stroke-width="0.773499" fill="#FFF4DD" transform="matrix(1 0 0 1.00069 5.02582 7.7403)"/><text fill="#333333" font-family="Cambria,Cambria_MSFontService,sans-serif" font-weight="400" font-size="16" transform="matrix(0.773499 0 0 0.77403 188.511 425)">installer</text><text fill="#333333" font-family="Cambria,Cambria_MSFontService,sans-serif" font-weight="400" font-size="16" transform="matrix(0.773499 0 0 0.77403 232.28 425)">.</text><text fill="#333333" font-family="Cambria,Cambria_MSFontService,sans-serif" font-weight="400" font-size="16" transform="matrix(0.773499 0 0 0.77403 234.818 425)">sh</text><path d="M113.704 392.164C114.986 392.164 116.025 393.203 116.025 394.484L116.025 440.121C116.025 441.402 114.986 442.441 113.704 442.441L2.3205 442.441C1.03892 442.441 -3.43502e-16 441.402 0 440.121L0 394.484C-6.87005e-16 393.203 1.03892 392.164 2.3205 392.164Z" stroke="#666666" stroke-width="0.773499" fill="#FFF4DD" transform="matrix(1 0 0 1.00069 5.02582 7.7403)"/><text fill="#333333" font-family="Cambria,Cambria_MSFontService,sans-serif" font-weight="400" font-size="16" transform="matrix(0.773499 0 0 0.77403 50.7922 425)">User</text><path d="M573.936 50.2774 573.936 392.164" stroke="#999999" stroke-width="1.547" fill="none" transform="matrix(1 0 0 1.00069 5.02582 7.7403)"/><path d="M629.628 0C630.909 -3.43502e-16 631.948 1.03892 631.948 2.3205L631.948 47.9569C631.948 49.2385 630.909 50.2774 629.628 50.2774L518.244 50.2774C516.962 50.2774 515.924 49.2385 515.924 47.9569L515.924 2.3205C515.924 1.03892 516.962 -3.43502e-16 518.244 0Z" stroke="#666666" stroke-width="0.773499" fill="#FFF4DD" transform="matrix(1 0 0 1.00069 5.02582 7.7403)"/><text fill="#333333" font-family="Cambria,Cambria_MSFontService,sans-serif" font-weight="400" font-size="16" transform="matrix(0.773499 0 0 0.77403 545.227 33)">env</text><text fill="#333333" font-family="Cambria,Cambria_MSFontService,sans-serif" font-weight="400" font-size="16" transform="matrix(0.773499 0 0 0.77403 564.166 33)">_</text><text fill="#333333" font-family="Cambria,Cambria_MSFontService,sans-serif" font-weight="400" font-size="16" transform="matrix(0.773499 0 0 0.77403 568.752 33)">setup</text><text fill="#333333" font-family="Cambria,Cambria_MSFontService,sans-serif" font-weight="400" font-size="16" transform="matrix(0.773499 0 0 0.77403 598.012 33)">.</text><text fill="#333333" font-family="Cambria,Cambria_MSFontService,sans-serif" font-weight="400" font-size="16" transform="matrix(0.773499 0 0 0.77403 600.55 33)">sh</text><path d="M419.236 50.2774 419.236 392.164" stroke="#999999" stroke-width="1.547" fill="none" transform="matrix(1 0 0 1.00069 5.02582 7.7403)"/><path d="M474.928 0C476.21 -3.43502e-16 477.249 1.03892 477.249 2.3205L477.249 47.9569C477.249 49.2385 476.21 50.2774 474.928 50.2774L363.544 50.2774C362.263 50.2774 361.224 49.2385 361.224 47.9569L361.224 2.3205C361.224 1.03892 362.263 -3.43502e-16 363.544 0Z" stroke="#666666" stroke-width="0.773499" fill="#FFF4DD" transform="matrix(1 0 0 1.00069 5.02582 7.7403)"/><text fill="#333333" font-family="Cambria,Cambria_MSFontService,sans-serif" font-weight="400" font-size="16" transform="matrix(0.773499 0 0 0.77403 381.457 33)">gmtsar</text><text fill="#333333" font-family="Cambria,Cambria_MSFontService,sans-serif" font-weight="400" font-size="16" transform="matrix(0.773499 0 0 0.77403 418.536 33)">_</text><text fill="#333333" font-family="Cambria,Cambria_MSFontService,sans-serif" font-weight="400" font-size="16" transform="matrix(0.773499 0 0 0.77403 423.123 33)">setup</text><text fill="#333333" font-family="Cambria,Cambria_MSFontService,sans-serif" font-weight="400" font-size="16" transform="matrix(0.773499 0 0 0.77403 452.383 33)">.</text><text fill="#333333" font-family="Cambria,Cambria_MSFontService,sans-serif" font-weight="400" font-size="16" transform="matrix(0.773499 0 0 0.77403 454.921 33)">sh</text><path d="M212.712 50.2774 212.712 392.164" stroke="#999999" stroke-width="1.547" fill="none" transform="matrix(1 0 0 1.00069 5.02582 7.7403)"/><path d="M268.404 0C269.686 -3.43502e-16 270.725 1.03892 270.725 2.3205L270.725 47.9569C270.725 49.2385 269.686 50.2774 268.404 50.2774L157.02 50.2774C155.739 50.2774 154.7 49.2385 154.7 47.9569L154.7 2.3205C154.7 1.03892 155.739 -3.43502e-16 157.02 0Z" stroke="#666666" stroke-width="0.773499" fill="#FFF4DD" transform="matrix(1 0 0 1.00069 5.02582 7.7403)"/><text fill="#333333" font-family="Cambria,Cambria_MSFontService,sans-serif" font-weight="400" font-size="16" transform="matrix(0.773499 0 0 0.77403 188.511 33)">installer</text><text fill="#333333" font-family="Cambria,Cambria_MSFontService,sans-serif" font-weight="400" font-size="16" transform="matrix(0.773499 0 0 0.77403 232.28 33)">.</text><text fill="#333333" font-family="Cambria,Cambria_MSFontService,sans-serif" font-weight="400" font-size="16" transform="matrix(0.773499 0 0 0.77403 234.818 33)">sh</text><path d="M58.0124 50.2774 58.0124 392.164" stroke="#999999" stroke-width="1.547" fill="none" transform="matrix(1 0 0 1.00069 5.02582 7.7403)"/><path d="M113.704 0C114.986 -3.43502e-16 116.025 1.03892 116.025 2.3205L116.025 47.9569C116.025 49.2385 114.986 50.2774 113.704 50.2774L2.3205 50.2774C1.03892 50.2774 -3.43502e-16 49.2385 0 47.9569L0 2.3205C-6.87005e-16 1.03892 1.03892 -3.43502e-16 2.3205 0Z" stroke="#666666" stroke-width="0.773499" fill="#FFF4DD" transform="matrix(1 0 0 1.00069 5.02582 7.7403)"/><text fill="#333333" font-family="Cambria,Cambria_MSFontService,sans-serif" font-weight="400" font-size="16" transform="matrix(0.773499 0 0 0.77403 50.7922 33)">User</text><text fill="#333333" font-family="Cambria,Cambria_MSFontService,sans-serif" font-weight="400" font-size="16" transform="matrix(0.773499 0 0 0.77403 95.2472 82)">Start Installation</text><path d="M58.7859 85.8583 209.618 85.8583" stroke="#333333" stroke-width="1.16025" fill="none" transform="matrix(1 0 0 1.00069 5.02582 7.7403)"/><g clip-path="url(#clip0)"><path d="M-1.16025 0 11.6025 5.80124 0 11.6025Z" stroke="#333333" stroke-width="1.16025" fill="#333333" transform="matrix(1 0 0 1.00069 205.478 87.8524)"/></g><text fill="#333333" font-family="Cambria,Cambria_MSFontService,sans-serif" font-weight="400" font-size="16" transform="matrix(0.773499 0 0 0.77403 182.396 118)">System Check</text><path d="M213.486 119.892C259.896 112.157 259.896 143.097 213.486 135.362" stroke="#333333" stroke-width="1.16025" fill="none" transform="matrix(1 0 0 1.00069 5.02582 7.7403)"/><g clip-path="url(#clip1)"><path d="M-1.16027 0 11.6027 5.80135 0 11.6027Z" stroke="#333333" stroke-width="1.16027" fill="#333333" transform="matrix(-0.986376 -0.164509 0.164396 -0.987054 226.599 150.43)"/></g><text fill="#333333" font-family="Cambria,Cambria_MSFontService,sans-serif" font-weight="400" font-size="16" transform="matrix(0.773499 0 0 0.77403 250.902 175)">Start GMTSAR Installation</text><path d="M213.486 178.678 416.142 178.678" stroke="#333333" stroke-width="1.16025" fill="none" transform="matrix(1 0 0 1.00069 5.02582 7.7403)"/><g clip-path="url(#clip2)"><path d="M-1.16025 0 11.6025 5.80124 0 11.6025Z" stroke="#333333" stroke-width="1.16025" fill="#333333" transform="matrix(1 0 0 1.00069 412.002 180.736)"/></g><text fill="#333333" font-family="Cambria,Cambria_MSFontService,sans-serif" font-weight="400" font-size="16" transform="matrix(0.773499 0 0 0.77403 369.335 211)">Compile Source Code</text><path d="M420.01 214.259C466.42 206.524 466.42 237.464 420.01 229.729" stroke="#333333" stroke-width="1.16025" fill="none" transform="matrix(1 0 0 1.00069 5.02582 7.7403)"/><g clip-path="url(#clip3)"><path d="M-1.16027 0 11.6027 5.80135 0 11.6027Z" stroke="#333333" stroke-width="1.16027" fill="#333333" transform="matrix(-0.986376 -0.164509 0.164396 -0.987054 433.123 244.861)"/></g><text fill="#333333" font-family="Cambria,Cambria_MSFontService,sans-serif" font-weight="400" font-size="16" transform="matrix(0.773499 0 0 0.77403 274.276 269)">Installation Status</text><path d="M418.463 271.498 215.806 271.498" stroke="#333333" stroke-width="1.16025" stroke-dasharray="2.3205 2.3205" fill="none" transform="matrix(1 0 0 1.00069 5.02582 7.7403)"/><g clip-path="url(#clip4)"><path d="M-1.16025 0 11.6025 5.80124 0 11.6025Z" stroke="#333333" stroke-width="1.16025" fill="#333333" transform="matrix(-1 1.22549e-16 -1.22465e-16 -1.00069 229.998 285.23)"/></g><text fill="#333333" font-family="Cambria,Cambria_MSFontService,sans-serif" font-weight="400" font-size="16" transform="matrix(0.773499 0 0 0.77403 327.194 303)">Set Environment Variables</text><path d="M213.486 307.079 570.842 307.079" stroke="#333333" stroke-width="1.16025" fill="none" transform="matrix(1 0 0 1.00069 5.02582 7.7403)"/><g clip-path="url(#clip5)"><path d="M-1.16025 0 11.6025 5.80124 0 11.6025Z" stroke="#333333" stroke-width="1.16025" fill="#333333" transform="matrix(1 0 0 1.00069 566.702 309.225)"/></g><text fill="#333333" font-family="Cambria,Cambria_MSFontService,sans-serif" font-weight="400" font-size="16" transform="matrix(0.773499 0 0 0.77403 345.48 339)">Configuration Status</text><path d="M573.162 342.66 215.806 342.66" stroke="#333333" stroke-width="1.16025" stroke-dasharray="2.3205 2.3205" fill="none" transform="matrix(1 0 0 1.00069 5.02582 7.7403)"/><g clip-path="url(#clip6)"><path d="M-1.16025 0 11.6025 5.80124 0 11.6025Z" stroke="#333333" stroke-width="1.16025" fill="#333333" transform="matrix(-1 1.22549e-16 -1.22465e-16 -1.00069 229.998 356.441)"/></g><text fill="#333333" font-family="Cambria,Cambria_MSFontService,sans-serif" font-weight="400" font-size="16" transform="matrix(0.773499 0 0 0.77403 93.8059 375)">Installation Result</text><path d="M211.939 376.694 61.1064 376.694" stroke="#333333" stroke-width="1.16025" fill="none" transform="matrix(1 0 0 1.00069 5.02582 7.7403)"/><g clip-path="url(#clip7)"><path d="M-1.16025 0 11.6025 5.80124 0 11.6025Z" stroke="#333333" stroke-width="1.16025" fill="#333333" transform="matrix(-1 1.22549e-16 -1.22465e-16 -1.00069 75.2982 390.498)"/></g></g></svg>